<?xml version="1.0" encoding="UTF-8" standalone="no"?>
<!DOCTYPE svg PUBLIC "-//W3C//DTD SVG 1.1//EN" "http://www.w3.org/Graphics/SVG/1.1/DTD/svg11.dtd">
<svg width="100%" height="100%" viewBox="0 0 171 59" version="1.1" xmlns="http://www.w3.org/2000/svg" xmlns:xlink="http://www.w3.org/1999/xlink" xml:space="preserve" xmlns:serif="http://www.serif.com/" style="fill-rule:evenodd;clip-rule:evenodd;stroke-linejoin:round;stroke-miterlimit:2;">
    <g transform="matrix(1,0,0,1,-6.2,-5.9)">
        <g>
            <g>
                <path d="M141.9,11.6L156.1,9L156.1,63.5L141.9,63.5L141.9,11.6ZM162.6,11.6L162.6,63.6L176.8,63.6L176.8,9L162.6,11.6ZM121.7,63.6L135.9,63.6L135.9,23.7L121.7,23.7L121.7,63.6ZM27.8,29.3C26,29.2 21.8,28.9 21.8,25.2C21.8,20.7 27.8,20.7 30,20.7C33.9,20.7 39.1,21.9 42.7,23C42.7,23 44.7,23.7 46.5,24.5L46.7,24.5L46.7,12.1L46.5,12C42.2,10.5 37.2,9 27.9,9C11.9,9 6.2,18.3 6.2,26.3C6.2,30.9 8.2,41.8 26.5,43C28.1,43.1 32.2,43.3 32.2,47.2C32.2,50.4 28.8,52.3 23.1,52.3C16.9,52.3 10.8,50.7 7.2,49.2L7.2,62C12.7,63.4 18.9,64.2 26.1,64.2C41.8,64.2 48.8,55.4 48.8,46.6C48.8,36.7 40.9,30.2 27.8,29.3ZM113.6,23.1C100.5,23.5 93.8,29.4 93.8,41.1L93.8,63.5L108.1,63.5L108.1,45.3C108.1,38.3 109,35.3 117.3,35L117.3,23.3C116,23 113.6,23.1 113.6,23.1ZM75.1,23.6C74.8,24.4 72.5,30.8 67,37.5L67,9L52.3,11.9L52.3,63.5L67,63.5L67,47.5C71.2,53.9 73.3,63.5 73.3,63.5L90.9,63.5C89.2,56.3 81.6,43 81.6,43C88.4,34.4 91.4,25.1 91.9,23.6L75.1,23.6ZM128.8,19.9C132.7,19.9 135.8,16.8 135.8,12.9C135.8,9 132.7,5.9 128.8,5.9C124.9,5.9 121.8,9 121.8,12.9C121.8,16.7 124.9,19.9 128.8,19.9Z" style="fill:rgb(134,33,101);fill-rule:nonzero;"/>
            </g>
        </g>
    </g>
</svg>
